<svg width="33" height="50" viewBox="0 0 33 50" fill="none" xmlns="http://www.w3.org/2000/svg">
<path d="M4.50909 31.0169L3.83662 31.349L4.50909 31.0169ZM1.03652 16.8087L0.293885 16.7039L1.03652 16.8087ZM4.77086 16.3437L4.08023 16.6362L4.77086 16.3437ZM8.2434 25.9024L7.54013 26.1629C7.68315 26.5489 8.11054 26.7475 8.49778 26.6079C8.88501 26.4683 9.08736 26.0427 8.95116 25.6542L8.2434 25.9024ZM4.77086 6.57956L4.3575 5.95375L4.77086 6.57956ZM10.2753 20.0514C10.3822 20.4516 10.7933 20.6893 11.1935 20.5824C11.5937 20.4755 11.8314 20.0644 11.7245 19.6643L10.2753 20.0514ZM15.594 19.3929L14.8491 19.4795C14.894 19.8663 15.2276 20.1544 15.6169 20.1425C16.0061 20.1307 16.3216 19.8228 16.3429 19.434L15.594 19.3929ZM27.5388 17.0681L27.7012 17.8003L27.5388 17.0681ZM20.3209 18.2996L21.0427 18.5033L20.3209 18.2996ZM22.2726 23.1452L22.6402 22.4914C22.6307 22.4861 22.621 22.4809 22.6113 22.476L22.2726 23.1452ZM15.9593 39.6654C16.3703 39.7173 16.7455 39.4263 16.7975 39.0154C16.8495 38.6045 16.5585 38.2292 16.1476 38.1772L15.9593 39.6654ZM5.18156 30.6848C4.54477 29.3954 3.6001 26.5564 2.85672 23.6802C2.4874 22.2512 2.17354 20.8352 1.97507 19.623C1.77221 18.3841 1.70474 17.4409 1.77916 16.9135L0.293885 16.7039C0.184567 17.4784 0.291155 18.6218 0.494777 19.8654C0.702783 21.1358 1.02782 22.5983 1.40444 24.0555C2.15294 26.9515 3.1283 29.9147 3.83662 31.349L5.18156 30.6848ZM1.77916 16.9135C1.8288 16.5618 1.96764 16.202 2.16245 15.9075C2.36124 15.607 2.58222 15.4271 2.76317 15.3549C2.91064 15.2961 3.05378 15.2943 3.23629 15.412C3.45403 15.5525 3.76579 15.8936 4.08023 16.6362L5.46149 16.0513C5.08681 15.1665 4.62003 14.5196 4.04939 14.1515C3.44352 13.7607 2.78843 13.7299 2.2074 13.9616C1.65986 14.1801 1.22208 14.6103 0.911424 15.0799C0.596786 15.5555 0.375496 16.1256 0.293885 16.7039L1.77916 16.9135ZM4.08023 16.6362C5.17609 19.2241 7.05972 24.8664 7.54013 26.1629L8.94668 25.6418C8.50826 24.4585 6.57082 18.671 5.46149 16.0513L4.08023 16.6362ZM8.95116 25.6542C8.10808 23.2496 6.59214 18.8861 5.6146 14.9134C5.12466 12.9222 4.77991 11.0678 4.71301 9.6234C4.67947 8.89937 4.71805 8.31837 4.82234 7.89065C4.92845 7.4555 5.07759 7.27579 5.18423 7.20536L4.3575 5.95375C3.80473 6.31888 3.51519 6.91954 3.36504 7.53531C3.21308 8.15853 3.17784 8.89902 3.21461 9.69281C3.28832 11.2841 3.66072 13.2506 4.15805 15.2718C5.15506 19.3237 6.69421 23.7505 7.53564 26.1505L8.95116 25.6542ZM5.18423 7.20536C5.59531 6.93382 5.8394 6.94431 5.98407 6.9879C6.16349 7.04196 6.38807 7.20744 6.63553 7.56807C7.13649 8.29811 7.48626 9.46301 7.71495 10.466L9.17741 10.1325C8.94669 9.12066 8.54907 7.70555 7.87234 6.71937C7.53097 6.22189 7.05915 5.74521 6.4168 5.55168C5.73971 5.34767 5.03668 5.50513 4.3575 5.95375L5.18423 7.20536ZM7.7216 10.4928L10.2753 20.0514L11.7245 19.6643L9.17077 10.1057L7.7216 10.4928ZM9.16526 10.0861C8.71546 8.56866 8.2302 6.31832 8.20839 4.47833C8.19735 3.54759 8.30717 2.81175 8.53066 2.33597C8.63776 2.10796 8.75747 1.96872 8.87535 1.88575C8.98668 1.80739 9.13701 1.75 9.36501 1.75V0.25C8.85795 0.25 8.39956 0.38634 8.01199 0.659124C7.63098 0.927299 7.36162 1.29662 7.17297 1.69824C6.80496 2.48173 6.69656 3.48951 6.70849 4.49611C6.73262 6.53081 7.25808 8.93009 7.72711 10.5124L9.16526 10.0861ZM9.36501 1.75C9.44053 1.75 9.62128 1.79331 9.9117 2.09465C10.1952 2.38885 10.5041 2.84964 10.8254 3.47541C11.4654 4.72207 12.0788 6.47119 12.6307 8.42428C13.732 12.3219 14.547 16.8806 14.8491 19.4795L16.339 19.3063C16.0286 16.6356 15.1992 11.9978 14.0742 8.01641C13.5129 6.02999 12.8676 4.16893 12.1598 2.7903C11.8071 2.10342 11.4197 1.49779 10.9917 1.05372C10.5706 0.61679 10.0246 0.25 9.36501 0.25V1.75ZM16.3429 19.434C16.4149 18.1226 16.7916 16.4021 17.6758 15.0341C18.5375 13.7009 19.8719 12.7035 21.9664 12.7035V11.2035C19.2829 11.2035 17.5077 12.5309 16.416 14.2199C15.3468 15.8742 14.9263 17.8734 14.8452 19.3518L16.3429 19.434ZM21.9664 12.7035C24.7368 12.7035 26.2383 13.8048 26.9069 14.8075C27.2524 15.3255 27.3714 15.806 27.3642 16.1171C27.356 16.4675 27.2357 16.3671 27.3765 16.3358L27.7012 17.8003C28.5601 17.6098 28.8489 16.7905 28.8638 16.152C28.8796 15.4743 28.6356 14.696 28.1549 13.9752C27.1713 12.5003 25.1683 11.2035 21.9664 11.2035V12.7035ZM27.3765 16.3358C25.4673 16.7591 24.086 16.305 22.8378 16.0745C22.2567 15.9672 21.5485 15.8764 20.912 16.1935C20.2382 16.5293 19.8504 17.2058 19.5991 18.0958L21.0427 18.5033C21.2509 17.766 21.4707 17.5911 21.581 17.5361C21.7287 17.4625 21.9812 17.4416 22.5654 17.5495C23.6479 17.7494 25.4161 18.3069 27.7012 17.8003L27.3765 16.3358ZM19.5991 18.0958C18.7424 21.1305 20.4757 23.0764 21.934 23.8144L22.6113 22.476C21.6194 21.9741 20.4293 20.6762 21.0427 18.5033L19.5991 18.0958ZM21.9051 23.7989L26.0398 26.1237L26.775 24.8162L22.6402 22.4914L21.9051 23.7989ZM3.83662 31.349C5.30461 34.3216 9.78514 38.8843 15.9593 39.6654L16.1476 38.1772C10.5608 37.4704 6.46901 33.2918 5.18156 30.6848L3.83662 31.349Z" fill="white"/>
<path d="M19.4752 30.3174C19.3456 30.7108 19.5595 31.1348 19.9529 31.2644C20.3463 31.3939 20.7703 31.18 20.8999 30.7866L19.4752 30.3174ZM26.1599 26.3673L26.3595 27.0903L26.4317 27.0704L26.4985 27.0365L26.1599 26.3673ZM26.6193 21.2528L25.907 21.4874L26.6193 21.2528ZM26.1599 44.9658L25.4199 44.844L26.1599 44.9658ZM15.5934 48.6855L15.3704 49.4016L15.4103 49.414L15.4514 49.422L15.5934 48.6855ZM11.918 40.3162L11.2729 39.9337L11.2353 39.9971L11.2108 40.0666L11.918 40.3162ZM20.8999 30.7866C21.1055 30.1624 22.481 28.1608 26.3595 27.0903L25.9604 25.6444C21.7531 26.8057 19.8821 29.0818 19.4752 30.3174L20.8999 30.7866ZM26.4985 27.0365C27.6314 26.4633 28.4682 24.469 27.3317 21.0181L25.907 21.4874C26.9756 24.732 25.9135 25.6515 25.8213 25.6981L26.4985 27.0365ZM27.3317 21.0181C27.0169 20.0625 27.0597 19.4688 27.1835 19.1448C27.2942 18.8552 27.4881 18.721 27.7274 18.6782C28.2785 18.5798 29.2204 18.9936 29.5823 20.0925L31.007 19.6233C30.4501 17.9324 28.8652 16.9513 27.4637 17.2016C26.7268 17.3332 26.0881 17.8092 25.7823 18.6094C25.4898 19.3751 25.5326 20.3507 25.907 21.4874L27.3317 21.0181ZM29.5823 20.0925C30.5241 22.9521 32.2413 26.8682 30.5077 31.6933L31.9193 32.2005C33.861 26.7964 31.9028 22.3432 31.007 19.6233L29.5823 20.0925ZM30.5077 31.6933C29.606 34.2027 28.6048 35.9977 27.6657 37.958C26.7292 39.913 25.8949 41.9597 25.4199 44.844L26.8999 45.0877C27.3438 42.3924 28.1174 40.487 29.0185 38.606C29.9171 36.7303 30.9833 34.8057 31.9193 32.2005L30.5077 31.6933ZM25.4199 44.844C25.1277 46.6183 23.6837 47.573 21.6533 47.9979C19.6346 48.4204 17.2834 48.2475 15.7353 47.9491L15.4514 49.422C17.1193 49.7435 19.6837 49.9426 21.9606 49.4661C24.2257 48.9921 26.4571 47.777 26.8999 45.0877L25.4199 44.844ZM15.8164 47.9694C14.9499 47.6996 13.7314 46.9987 12.9461 45.8082C12.1862 44.6562 11.778 42.9668 12.6253 40.5658L11.2108 40.0666C10.2204 42.8732 10.6545 45.0584 11.694 46.6342C12.7081 48.1715 14.246 49.0515 15.3704 49.4016L15.8164 47.9694ZM12.5631 40.6987L13.9417 38.3739L12.6515 37.6089L11.2729 39.9337L12.5631 40.6987Z" fill="white"/>
</svg>
